<svg xmlns="http://www.w3.org/2000/svg" viewBox="0 0 14 11.38"><defs><style>.cls-1{fill:#4899ff;}</style></defs><title>twitter_logo</title><g id="Layer_2" data-name="Layer 2"><g id="Layer_1-2" data-name="Layer 1"><path class="cls-1" d="M14,1.35a5.73,5.73,0,0,1-1.65.45A2.88,2.88,0,0,0,13.61.21a5.75,5.75,0,0,1-1.82.7A2.87,2.87,0,0,0,6.89,3.53,8.15,8.15,0,0,1,1,.53a2.88,2.88,0,0,0,.89,3.83A2.86,2.86,0,0,1,.56,4a2.87,2.87,0,0,0,2.3,2.85,2.88,2.88,0,0,1-1.3,0,2.87,2.87,0,0,0,2.68,2A5.78,5.78,0,0,1,0,10.09a8.13,8.13,0,0,0,4.4,1.29,8.12,8.12,0,0,0,8.16-8.54A5.85,5.85,0,0,0,14,1.35Z"/></g></g></svg>